<svg xmlns="http://www.w3.org/2000/svg"  viewBox="0 0 50 50" width="50px" height="50px"><path d="M 12.125 1.9980469 A 1.0001 1.0001 0 0 0 11.199219 2.7441406 L 2.0332031 37.576172 A 1.0001 1.0001 0 0 0 2.7460938 38.798828 L 37.580078 47.966797 A 1.0001 1.0001 0 0 0 38.802734 47.253906 L 47.96875 12.419922 A 1.0001 1.0001 0 0 0 47.255859 11.197266 L 12.421875 2.03125 A 1.0001 1.0001 0 0 0 12.125 1.9980469 z M 12.878906 4.21875 L 45.78125 12.876953 L 37.123047 45.777344 L 4.2207031 37.119141 L 12.878906 4.21875 z M 21.457031 18.001953 A 1.0001 1.0001 0 0 0 20.53125 18.746094 L 18.033203 28.246094 A 1.0001 1.0001 0 0 0 18.744141 29.466797 L 28.246094 31.966797 A 1.0001 1.0001 0 0 0 29.466797 31.255859 L 31.966797 21.755859 A 1.0001 1.0001 0 0 0 31.253906 20.535156 L 21.753906 18.035156 A 1.0001 1.0001 0 0 0 21.457031 18.001953 z M 22.210938 20.222656 L 29.779297 22.214844 L 27.787109 29.779297 L 20.220703 27.787109 L 22.210938 20.222656 z"/></svg>