<svg xmlns="http://www.w3.org/2000/svg" shape-rendering="geometricPrecision" text-rendering="geometricPrecision" image-rendering="optimizeQuality" fill-rule="evenodd" clip-rule="evenodd" viewBox="0 0 512 414.89"><path fill-rule="nonzero" d="M80.058 0h351.889c21.902 0 41.854 9.115 56.353 23.619C502.917 38.236 512 58.373 512 80.226v254.438c0 21.804-9.175 41.898-23.766 56.477-14.574 14.58-34.591 23.749-56.287 23.749H80.058c-21.744 0-41.827-9.076-56.423-23.683C9.121 376.698 0 356.686 0 334.664V80.226c0-22.065 9.028-42.131 23.57-56.672C38.101 9.022 58.101 0 80.058 0zm79.064 135.666l29.441 101.221h1.12l29.441-101.221h44.016l-47.373 143.558h-53.261l-47.4-143.558h44.016zm117.767 143.558V135.666h61.974c10.658 0 19.969 1.939 27.965 5.823 7.99 3.879 14.21 9.473 18.654 16.742 4.437 7.3 6.643 16.052 6.643 26.22 0 10.294-2.271 18.947-6.844 26.02-4.536 7.04-10.919 12.369-19.111 15.986-8.224 3.586-17.768 5.394-28.719 5.394h-37.009v-30.294h29.182c4.568 0 8.484-.56 11.706-1.711 3.259-1.152 5.758-2.993 7.501-5.492 1.777-2.537 2.635-5.823 2.635-9.903 0-4.112-.858-7.469-2.635-10.033-1.743-2.602-4.242-4.541-7.501-5.758-3.222-1.249-7.138-1.874-11.706-1.874H315.87v112.438h-38.981zm84.116-65.89l35.889 65.89h-42.337l-35.037-65.89h41.485zm70.942-180.003H80.058c-13.004 0-24.792 5.286-33.293 13.787-8.496 8.495-13.771 20.218-13.771 33.108v254.438c0 12.809 5.34 24.488 13.836 32.978 8.577 8.583 20.403 13.917 33.228 13.917h351.889c12.744 0 24.515-5.399 33.092-13.982 8.572-8.566 13.967-20.283 13.967-32.913V80.226c0-12.711-5.33-24.471-13.901-33.043-8.501-8.501-20.24-13.852-33.158-13.852z"/></svg>