<?xml version="1.0" encoding="UTF-8"?>
<!DOCTYPE svg PUBLIC "-//W3C//DTD SVG 1.1//EN" "http://www.w3.org/Graphics/SVG/1.1/DTD/svg11.dtd">
<svg xmlns="http://www.w3.org/2000/svg" version="1.1" width="1024px" height="1024px" style="shape-rendering:geometricPrecision; text-rendering:geometricPrecision; image-rendering:optimizeQuality; fill-rule:evenodd; clip-rule:evenodd" xmlns:xlink="http://www.w3.org/1999/xlink">
<g><path style="opacity:1" fill="#99c954" d="M 374.5,46.5 C 375.833,46.5 377.167,46.5 378.5,46.5C 402.759,47.4897 427.092,47.823 451.5,47.5C 398.833,100.833 345.833,153.833 292.5,206.5C 292.831,181.994 292.498,157.661 291.5,133.5C 291.5,131.833 291.5,130.167 291.5,128.5C 292.586,128.38 293.253,127.713 293.5,126.5C 294.327,123.217 294.66,119.884 294.5,116.5C 295.853,112.487 297.52,108.487 299.5,104.5C 299.376,103.893 299.043,103.56 298.5,103.5C 298.5,103.167 298.5,102.833 298.5,102.5C 299.376,102.631 300.043,102.298 300.5,101.5C 302.963,97.7114 304.963,93.7114 306.5,89.5C 307.906,89.0269 308.573,88.0269 308.5,86.5C 312.845,82.153 316.845,77.4863 320.5,72.5C 321.167,71.5 321.833,70.5 322.5,69.5C 324.933,69.7271 326.599,68.7271 327.5,66.5C 329.404,66.2624 330.738,65.2624 331.5,63.5C 331.973,62.0937 332.973,61.427 334.5,61.5C 338.711,59.9633 342.711,57.9633 346.5,55.5C 347.298,55.0431 347.631,54.3764 347.5,53.5C 347.833,53.5 348.167,53.5 348.5,53.5C 348.435,53.9382 348.601,54.2716 349,54.5C 349.995,53.9341 350.828,53.2674 351.5,52.5C 355.982,50.5619 360.649,49.2286 365.5,48.5C 369.06,49.858 372.06,49.1913 374.5,46.5 Z"/></g>
<g><path style="opacity:1" fill="#c7dfa4" d="M 378.5,46.5 C 547.5,45.1667 716.5,45.1667 885.5,46.5C 863.909,47.4884 842.242,47.8217 820.5,47.5C 782.833,47.5 745.167,47.5 707.5,47.5C 684.5,47.5 661.5,47.5 638.5,47.5C 610.5,47.5 582.5,47.5 554.5,47.5C 543.167,47.5 531.833,47.5 520.5,47.5C 497.5,47.5 474.5,47.5 451.5,47.5C 427.092,47.823 402.759,47.4897 378.5,46.5 Z"/></g>
<g><path style="opacity:1" fill="#8bba4d" d="M 885.5,46.5 C 886.833,46.5 888.167,46.5 889.5,46.5C 889.791,47.6491 890.624,48.3158 892,48.5C 893.07,48.472 893.903,48.1386 894.5,47.5C 894.833,47.5 895.167,47.5 895.5,47.5C 895.611,48.1174 895.944,48.6174 896.5,49C 893.929,49.9009 891.596,51.2342 889.5,53C 851.528,91.9723 813.195,130.639 774.5,169C 789.006,169.169 803.339,169.669 817.5,170.5C 693.167,170.5 568.833,170.5 444.5,170.5C 468.661,169.502 492.994,169.169 517.5,169.5C 540.5,169.5 563.5,169.5 586.5,169.5C 624.168,169.667 661.835,169.5 699.5,169C 739.361,128.805 779.528,88.9721 820,49.5C 820.464,48.9056 820.631,48.2389 820.5,47.5C 842.242,47.8217 863.909,47.4884 885.5,46.5 Z"/></g>
<g><path style="opacity:1" fill="#96c652" d="M 451.5,47.5 C 474.5,47.5 497.5,47.5 520.5,47.5C 444.167,123.167 368.167,199.167 292.5,275.5C 292.5,252.5 292.5,229.5 292.5,206.5C 345.833,153.833 398.833,100.833 451.5,47.5 Z"/></g>
<g><path style="opacity:0.999" fill="#94c452" d="M 520.5,47.5 C 531.833,47.5 543.167,47.5 554.5,47.5C 513.535,88.9654 472.368,130.299 431,171.5C 430.308,172.437 430.475,173.103 431.5,173.5C 420.682,178.983 413.015,187.316 408.5,198.5C 408.657,197.127 408.49,195.793 408,194.5C 288.687,314.231 169.187,433.565 49.5,552.5C 49.5,541.167 49.5,529.833 49.5,518.5C 123.833,443.5 198.5,368.833 273.5,294.5C 279.167,294.5 284.833,294.5 290.5,294.5C 292.456,288.588 293.123,282.255 292.5,275.5C 368.167,199.167 444.167,123.167 520.5,47.5 Z"/></g>
<g><path style="opacity:1" fill="#93c250" d="M 554.5,47.5 C 582.5,47.5 610.5,47.5 638.5,47.5C 598.175,88.124 557.842,128.791 517.5,169.5C 492.994,169.169 468.661,169.502 444.5,170.5C 439.992,170.867 435.659,171.867 431.5,173.5C 430.475,173.103 430.308,172.437 431,171.5C 472.368,130.299 513.535,88.9654 554.5,47.5 Z"/></g>
<g><path style="opacity:1" fill="#90c04f" d="M 638.5,47.5 C 661.5,47.5 684.5,47.5 707.5,47.5C 669.507,86.3264 631.007,124.66 592,162.5C 590.334,164.996 588.5,167.329 586.5,169.5C 563.5,169.5 540.5,169.5 517.5,169.5C 557.842,128.791 598.175,88.124 638.5,47.5 Z"/></g>
<g><path style="opacity:1" fill="#8dbd4e" d="M 707.5,47.5 C 745.167,47.5 782.833,47.5 820.5,47.5C 820.631,48.2389 820.464,48.9056 820,49.5C 779.528,88.9721 739.361,128.805 699.5,169C 661.835,169.5 624.168,169.667 586.5,169.5C 588.5,167.329 590.334,164.996 592,162.5C 631.007,124.66 669.507,86.3264 707.5,47.5 Z"/></g>
<g><path style="opacity:1" fill="#bad596" d="M 889.5,46.5 C 891.415,46.2155 893.081,46.5489 894.5,47.5C 893.903,48.1386 893.07,48.472 892,48.5C 890.624,48.3158 889.791,47.6491 889.5,46.5 Z"/></g>
<g><path style="opacity:1" fill="#b4d781" d="M 374.5,46.5 C 372.06,49.1913 369.06,49.858 365.5,48.5C 368.273,47.3428 371.273,46.6761 374.5,46.5 Z"/></g>
<g><path style="opacity:1" fill="#88b74b" d="M 895.5,47.5 C 898.341,47.5597 901.007,48.2264 903.5,49.5C 904.918,51.3079 906.918,51.9746 909.5,51.5C 910.791,51.2627 911.791,51.596 912.5,52.5C 913.531,53.2485 914.698,53.9152 916,54.5C 916.399,54.2716 916.565,53.9382 916.5,53.5C 916.833,53.5 917.167,53.5 917.5,53.5C 917.414,54.4959 917.748,55.3292 918.5,56C 922.886,58.1932 927.22,60.3599 931.5,62.5C 933.027,62.427 934.027,63.0937 934.5,64.5C 942.167,71.5 949.5,78.8333 956.5,86.5C 956.365,88.5542 957.032,90.2209 958.5,91.5C 957.588,93.5952 956.421,95.5952 955,97.5C 921.651,130.57 888.484,163.736 855.5,197C 854.906,197.464 854.239,197.631 853.5,197.5C 846.685,181.743 834.685,172.743 817.5,170.5C 803.339,169.669 789.006,169.169 774.5,169C 813.195,130.639 851.528,91.9723 889.5,53C 891.596,51.2342 893.929,49.9009 896.5,49C 895.944,48.6174 895.611,48.1174 895.5,47.5 Z"/></g>
<g><path style="opacity:1" fill="#b5d28e" d="M 903.5,49.5 C 905.786,49.595 907.786,50.2616 909.5,51.5C 906.918,51.9746 904.918,51.3079 903.5,49.5 Z"/></g>
<g><path style="opacity:0.914" fill="#e1efcc" d="M 351.5,52.5 C 350.828,53.2674 349.995,53.9341 349,54.5C 348.601,54.2716 348.435,53.9382 348.5,53.5C 349.209,52.596 350.209,52.2627 351.5,52.5 Z"/></g>
<g><path style="opacity:0.953" fill="#e8f1dc" d="M 912.5,52.5 C 914.099,52.2322 915.432,52.5655 916.5,53.5C 916.565,53.9382 916.399,54.2716 916,54.5C 914.698,53.9152 913.531,53.2485 912.5,52.5 Z"/></g>
<g><path style="opacity:0.655" fill="#daebc0" d="M 347.5,53.5 C 347.631,54.3764 347.298,55.0431 346.5,55.5C 342.711,57.9633 338.711,59.9633 334.5,61.5C 337.988,57.5832 342.321,54.9166 347.5,53.5 Z"/></g>
<g><path style="opacity:0.663" fill="#c2daa3" d="M 917.5,53.5 C 922.883,55.5166 927.55,58.5166 931.5,62.5C 927.22,60.3599 922.886,58.1932 918.5,56C 917.748,55.3292 917.414,54.4959 917.5,53.5 Z"/></g>
<g><path style="opacity:0.922" fill="#d0e6ae" d="M 331.5,63.5 C 330.738,65.2624 329.404,66.2624 327.5,66.5C 328.262,64.7376 329.596,63.7376 331.5,63.5 Z"/></g>
<g><path style="opacity:0.145" fill="#e1efcc" d="M 327.5,66.5 C 326.599,68.7271 324.933,69.7271 322.5,69.5C 323.401,67.2729 325.067,66.2729 327.5,66.5 Z"/></g>
<g><path style="opacity:0.337" fill="#cbdfb1" d="M 934.5,64.5 C 936.78,65.6401 939.114,66.8068 941.5,68C 945.967,73.4681 950.8,78.6347 956,83.5C 956.483,84.448 956.649,85.448 956.5,86.5C 949.5,78.8333 942.167,71.5 934.5,64.5 Z"/></g>
<g><path style="opacity:0.882" fill="#cbe3a7" d="M 320.5,72.5 C 316.845,77.4863 312.845,82.153 308.5,86.5C 308.877,84.742 309.544,83.0754 310.5,81.5C 313.925,78.3986 317.258,75.3986 320.5,72.5 Z"/></g>
<g><path style="opacity:0.804" fill="#d0e6b0" d="M 308.5,86.5 C 308.573,88.0269 307.906,89.0269 306.5,89.5C 306.427,87.9731 307.094,86.9731 308.5,86.5 Z"/></g>
<g><path style="opacity:1" fill="#b1cf8a" d="M 956.5,86.5 C 957.89,87.8993 958.89,89.5659 959.5,91.5C 959.167,91.5 958.833,91.5 958.5,91.5C 957.032,90.2209 956.365,88.5542 956.5,86.5 Z"/></g>
<g><path style="opacity:0.999" fill="#84b449" d="M 958.5,91.5 C 958.833,91.5 959.167,91.5 959.5,91.5C 960.167,92.1667 960.833,92.8333 961.5,93.5C 961.956,98.4132 963.956,102.413 967.5,105.5C 967.5,105.833 967.5,106.167 967.5,106.5C 966.957,106.56 966.624,106.893 966.5,107.5C 967.098,108.795 967.598,110.128 968,111.5C 968.417,112.756 969.25,113.423 970.5,113.5C 970.5,115.167 970.5,116.833 970.5,118.5C 970.565,121.428 971.232,124.095 972.5,126.5C 973.476,137.085 973.809,147.752 973.5,158.5C 972.761,158.369 972.094,158.536 971.5,159C 933.299,197.368 894.965,235.535 856.5,273.5C 856.667,250.498 856.5,227.498 856,204.5C 855.434,202.277 854.6,200.277 853.5,198.5C 853.5,198.167 853.5,197.833 853.5,197.5C 854.239,197.631 854.906,197.464 855.5,197C 888.484,163.736 921.651,130.57 955,97.5C 956.421,95.5952 957.588,93.5952 958.5,91.5 Z"/></g>
<g><path style="opacity:1" fill="#ccdfb2" d="M 961.5,93.5 C 964.008,97.1822 966.008,101.182 967.5,105.5C 963.956,102.413 961.956,98.4132 961.5,93.5 Z"/></g>
<g><path style="opacity:1" fill="#d0e6af" d="M 306.5,89.5 C 304.963,93.7114 302.963,97.7114 300.5,101.5C 300.043,102.298 299.376,102.631 298.5,102.5C 299.917,97.3212 302.583,92.9879 306.5,89.5 Z"/></g>
<g><path style="opacity:1" fill="#cae3a5" d="M 298.5,103.5 C 299.043,103.56 299.376,103.893 299.5,104.5C 297.52,108.487 295.853,112.487 294.5,116.5C 294.769,111.736 296.102,107.403 298.5,103.5 Z"/></g>
<g><path style="opacity:0.208" fill="#bfd89e" d="M 967.5,106.5 C 968.945,108.571 969.945,110.904 970.5,113.5C 969.25,113.423 968.417,112.756 968,111.5C 967.598,110.128 967.098,108.795 966.5,107.5C 966.624,106.893 966.957,106.56 967.5,106.5 Z"/></g>
<g><path style="opacity:1" fill="#b8d987" d="M 294.5,116.5 C 294.66,119.884 294.327,123.217 293.5,126.5C 293.253,127.713 292.586,128.38 291.5,128.5C 291.898,124.239 292.898,120.239 294.5,116.5 Z"/></g>
<g><path style="opacity:0.804" fill="#bad497" d="M 970.5,118.5 C 972.04,120.838 972.706,123.505 972.5,126.5C 971.232,124.095 970.565,121.428 970.5,118.5 Z"/></g>
<g><path style="opacity:1" fill="#b3d681" d="M 291.5,133.5 C 292.498,157.661 292.831,181.994 292.5,206.5C 292.5,229.5 292.5,252.5 292.5,275.5C 293.123,282.255 292.456,288.588 290.5,294.5C 290.168,240.664 290.501,186.997 291.5,133.5 Z"/></g>
<g><path style="opacity:0.998" fill="#81b047" d="M 973.5,158.5 C 973.5,204.5 973.5,250.5 973.5,296.5C 972.761,296.369 972.094,296.536 971.5,297C 933.66,336.007 895.326,374.507 856.5,412.5C 856.5,366.167 856.5,319.833 856.5,273.5C 894.965,235.535 933.299,197.368 971.5,159C 972.094,158.536 972.761,158.369 973.5,158.5 Z"/></g>
<g><path style="opacity:1" fill="#fefefe" d="M 444.5,170.5 C 568.833,170.5 693.167,170.5 817.5,170.5C 834.685,172.743 846.685,181.743 853.5,197.5C 853.5,197.833 853.5,198.167 853.5,198.5C 853.523,200.927 854.023,203.26 855,205.5C 855.5,331.833 855.667,458.166 855.5,584.5C 854.466,589.602 852.799,594.602 850.5,599.5C 846.5,605.5 841.5,610.5 835.5,614.5C 830.015,616.773 824.348,618.439 818.5,619.5C 751.167,619.5 683.833,619.5 616.5,619.5C 616.5,689.5 616.5,759.5 616.5,829.5C 614.893,834.076 613.226,838.743 611.5,843.5C 606.28,853.377 598.28,860.043 587.5,863.5C 585.565,864.15 583.565,864.483 581.5,864.5C 453.155,864.819 324.822,864.486 196.5,863.5C 194.5,862.833 192.5,862.167 190.5,861.5C 177.783,854.8 170.116,844.467 167.5,830.5C 167.5,703.833 167.5,577.167 167.5,450.5C 172.29,430.378 184.956,419.044 205.5,416.5C 272.5,416.5 339.5,416.5 406.5,416.5C 406.5,346.5 406.5,276.5 406.5,206.5C 407.167,203.833 407.833,201.167 408.5,198.5C 413.015,187.316 420.682,178.983 431.5,173.5C 435.659,171.867 439.992,170.867 444.5,170.5 Z"/></g>
<g><path style="opacity:0.999" fill="#93c250" d="M 408.5,198.5 C 407.833,201.167 407.167,203.833 406.5,206.5C 405.502,231.328 405.169,256.328 405.5,281.5C 360.521,325.812 315.854,370.479 271.5,415.5C 249.327,415.169 227.327,415.503 205.5,416.5C 184.956,419.044 172.29,430.378 167.5,450.5C 166.502,473.661 166.169,496.994 166.5,520.5C 127.264,558.947 88.2641,597.614 49.5,636.5C 49.5,608.5 49.5,580.5 49.5,552.5C 169.187,433.565 288.687,314.231 408,194.5C 408.49,195.793 408.657,197.127 408.5,198.5 Z"/></g>
<g><path style="opacity:1" fill="#f8ce61" d="M 737.5,268.5 C 666.491,267.176 595.491,267.176 524.5,268.5C 525.263,267.732 526.263,267.232 527.5,267C 595.833,266.333 664.167,266.333 732.5,267C 734.382,267.198 736.048,267.698 737.5,268.5 Z"/></g>
<g><path style="opacity:1" fill="#f7c440" d="M 737.5,268.5 C 755.138,274.113 764.972,286.113 767,304.5C 767.667,370.833 767.667,437.167 767,503.5C 763.049,523.785 750.882,535.618 730.5,539C 662.446,539.656 594.446,539.656 526.5,539C 527.252,539.671 527.586,540.504 527.5,541.5C 528.487,611.144 528.82,680.811 528.5,750.5C 524.88,768.955 513.88,780.455 495.5,785C 427.167,785.667 358.833,785.667 290.5,785C 271.33,780.164 260.164,767.997 257,748.5C 256.333,681.167 256.333,613.833 257,546.5C 261.4,529.1 272.233,517.933 289.5,513C 358.499,512.5 427.499,512.333 496.5,512.5C 496.5,511.5 496.5,510.5 496.5,509.5C 495.513,439.189 495.18,368.856 495.5,298.5C 499.091,282.576 508.758,272.576 524.5,268.5C 595.491,267.176 666.491,267.176 737.5,268.5 Z"/></g>
<g><path style="opacity:1" fill="#90c04f" d="M 405.5,281.5 C 405.5,326.167 405.5,370.833 405.5,415.5C 360.833,415.5 316.167,415.5 271.5,415.5C 315.854,370.479 360.521,325.812 405.5,281.5 Z"/></g>
<g><path style="opacity:1" fill="#a9c982" d="M 853.5,198.5 C 854.6,200.277 855.434,202.277 856,204.5C 856.5,227.498 856.667,250.498 856.5,273.5C 856.5,319.833 856.5,366.167 856.5,412.5C 856.5,440.5 856.5,468.5 856.5,496.5C 856.831,526.005 856.498,555.338 855.5,584.5C 855.667,458.166 855.5,331.833 855,205.5C 854.023,203.26 853.523,200.927 853.5,198.5 Z"/></g>
<g><path style="opacity:0.998" fill="#99c954" d="M 204.5,294.5 C 153.535,345.965 102.368,397.299 51,448.5C 50.8299,438.991 50.3299,429.658 49.5,420.5C 49.3334,405.496 49.5001,390.496 50,375.5C 50.1909,373.292 50.6909,371.292 51.5,369.5C 53.3117,367.287 53.6451,364.953 52.5,362.5C 52.5,362.167 52.5,361.833 52.5,361.5C 54.4241,361.289 54.7574,360.623 53.5,359.5C 53.5,359.167 53.5,358.833 53.5,358.5C 55.4241,358.289 55.7574,357.623 54.5,356.5C 54.5,356.167 54.5,355.833 54.5,355.5C 55.3764,355.631 56.0431,355.298 56.5,354.5C 58.5298,349.782 60.5298,345.115 62.5,340.5C 64.369,338.966 65.7023,336.966 66.5,334.5C 68.9,332.704 70.5667,330.37 71.5,327.5C 77.4971,323.133 82.8304,318.133 87.5,312.5C 90.7043,311.617 93.3709,309.95 95.5,307.5C 97.0269,307.573 98.0269,306.906 98.5,305.5C 102.085,305.708 104.751,304.375 106.5,301.5C 108.199,301.66 109.866,301.494 111.5,301C 112.756,300.583 113.423,299.75 113.5,298.5C 114.708,297.766 116.041,297.433 117.5,297.5C 118.623,298.757 119.289,298.424 119.5,296.5C 119.833,296.5 120.167,296.5 120.5,296.5C 121.947,297.885 122.947,297.552 123.5,295.5C 150.484,294.563 177.484,294.23 204.5,294.5 Z"/></g>
<g><path style="opacity:0.998" fill="#96c652" d="M 204.5,294.5 C 227.5,294.5 250.5,294.5 273.5,294.5C 198.5,368.833 123.833,443.5 49.5,518.5C 49.5,485.833 49.5,453.167 49.5,420.5C 50.3299,429.658 50.8299,438.991 51,448.5C 102.368,397.299 153.535,345.965 204.5,294.5 Z"/></g>
<g><path style="opacity:1" fill="#d9eabe" d="M 123.5,295.5 C 122.947,297.552 121.947,297.885 120.5,296.5C 121.209,295.596 122.209,295.263 123.5,295.5 Z"/></g>
<g><path style="opacity:0.998" fill="#7dad45" d="M 973.5,296.5 C 973.5,324.5 973.5,352.5 973.5,380.5C 972.761,380.369 972.094,380.536 971.5,381C 933.66,420.007 895.326,458.507 856.5,496.5C 856.5,468.5 856.5,440.5 856.5,412.5C 895.326,374.507 933.66,336.007 971.5,297C 972.094,296.536 972.761,296.369 973.5,296.5 Z"/></g>
<g><path style="opacity:1" fill="#d1e6b2" d="M 119.5,296.5 C 119.289,298.424 118.623,298.757 117.5,297.5C 117.842,296.662 118.508,296.328 119.5,296.5 Z"/></g>
<g><path style="opacity:1" fill="#cbe3a7" d="M 113.5,298.5 C 113.423,299.75 112.756,300.583 111.5,301C 109.866,301.494 108.199,301.66 106.5,301.5C 108.509,299.935 110.843,298.935 113.5,298.5 Z"/></g>
<g><path style="opacity:1" fill="#c5e09c" d="M 106.5,301.5 C 104.751,304.375 102.085,305.708 98.5,305.5C 100.849,303.659 103.515,302.326 106.5,301.5 Z"/></g>
<g><path style="opacity:0.851" fill="#dbecc2" d="M 98.5,305.5 C 98.0269,306.906 97.0269,307.573 95.5,307.5C 95.9731,306.094 96.9731,305.427 98.5,305.5 Z"/></g>
<g><path style="opacity:1" fill="#f7cb58" d="M 495.5,298.5 C 495.18,368.856 495.513,439.189 496.5,509.5C 495.732,508.737 495.232,507.737 495,506.5C 494.168,436.999 494.335,367.665 495.5,298.5 Z"/></g>
<g><path style="opacity:0.71" fill="#dcecc3" d="M 95.5,307.5 C 93.3709,309.95 90.7043,311.617 87.5,312.5C 89.4844,309.836 92.1511,308.169 95.5,307.5 Z"/></g>
<g><path style="opacity:0.375" fill="#d6e9b8" d="M 87.5,312.5 C 82.8304,318.133 77.4971,323.133 71.5,327.5C 74.3839,324.019 77.3839,320.519 80.5,317C 82.7343,315.25 85.0676,313.75 87.5,312.5 Z"/></g>
<g><path style="opacity:0.765" fill="#d2e7b2" d="M 71.5,327.5 C 70.5667,330.37 68.9,332.704 66.5,334.5C 67.0102,331.326 68.6769,328.992 71.5,327.5 Z"/></g>
<g><path style="opacity:1" fill="#cfe5ad" d="M 66.5,334.5 C 65.7023,336.966 64.369,338.966 62.5,340.5C 62.8449,337.802 64.1782,335.802 66.5,334.5 Z"/></g>
<g><path style="opacity:0.424" fill="#d5e8b7" d="M 62.5,340.5 C 60.5298,345.115 58.5298,349.782 56.5,354.5C 56.0431,355.298 55.3764,355.631 54.5,355.5C 56.4068,350.016 59.0734,345.016 62.5,340.5 Z"/></g>
<g><path style="opacity:1" fill="#d2e7b3" d="M 54.5,356.5 C 55.7574,357.623 55.4241,358.289 53.5,358.5C 53.3284,357.508 53.6618,356.842 54.5,356.5 Z"/></g>
<g><path style="opacity:1" fill="#d1e7b1" d="M 53.5,359.5 C 54.7574,360.623 54.4241,361.289 52.5,361.5C 52.3284,360.508 52.6618,359.842 53.5,359.5 Z"/></g>
<g><path style="opacity:0.953" fill="#c2de98" d="M 52.5,362.5 C 53.6451,364.953 53.3117,367.287 51.5,369.5C 51.6741,367.139 52.0074,364.806 52.5,362.5 Z"/></g>
<g><path style="opacity:0.998" fill="#7aaa44" d="M 973.5,380.5 C 973.5,413.5 973.5,446.5 973.5,479.5C 935.291,516.042 897.624,553.375 860.5,591.5C 857.417,594.594 854.084,597.261 850.5,599.5C 852.799,594.602 854.466,589.602 855.5,584.5C 856.498,555.338 856.831,526.005 856.5,496.5C 895.326,458.507 933.66,420.007 971.5,381C 972.094,380.536 972.761,380.369 973.5,380.5 Z"/></g>
<g><path style="opacity:1" fill="#a5cc71" d="M 406.5,206.5 C 406.5,276.5 406.5,346.5 406.5,416.5C 339.5,416.5 272.5,416.5 205.5,416.5C 227.327,415.503 249.327,415.169 271.5,415.5C 316.167,415.5 360.833,415.5 405.5,415.5C 405.5,370.833 405.5,326.167 405.5,281.5C 405.169,256.328 405.502,231.328 406.5,206.5 Z"/></g>
<g><path style="opacity:0.999" fill="#78a743" d="M 973.5,479.5 C 973.5,508.833 973.5,538.167 973.5,567.5C 972.761,567.369 972.094,567.536 971.5,568C 917.943,621.056 864.943,674.556 812.5,728.5C 785.833,728.5 759.167,728.5 732.5,728.5C 732.832,782.336 732.499,836.003 731.5,889.5C 730.668,863.003 730.168,836.336 730,809.5C 674.632,864.701 619.465,920.035 564.5,975.5C 535.167,975.5 505.833,975.5 476.5,975.5C 513.446,938.221 550.446,900.887 587.5,863.5C 598.28,860.043 606.28,853.377 611.5,843.5C 613.714,841.424 615.214,838.758 616,835.5C 688.93,762.947 761.763,690.281 834.5,617.5C 835.127,616.583 835.461,615.583 835.5,614.5C 841.5,610.5 846.5,605.5 850.5,599.5C 854.084,597.261 857.417,594.594 860.5,591.5C 897.624,553.375 935.291,516.042 973.5,479.5 Z"/></g>
<g><path style="opacity:0.998" fill="#90c04f" d="M 166.5,520.5 C 166.5,543.5 166.5,566.5 166.5,589.5C 165.317,590.504 163.984,591.338 162.5,592C 125.16,630.199 87.4937,668.033 49.5,705.5C 49.5,682.5 49.5,659.5 49.5,636.5C 88.2641,597.614 127.264,558.947 166.5,520.5 Z"/></g>
<g><path style="opacity:1" fill="#f8d16d" d="M 527.5,541.5 C 528.268,542.263 528.768,543.263 529,544.5C 529.832,613.335 529.665,682.001 528.5,750.5C 528.82,680.811 528.487,611.144 527.5,541.5 Z"/></g>
<g><path style="opacity:0.998" fill="#75a441" d="M 973.5,567.5 C 973.667,594.169 973.5,620.835 973,647.5C 972.71,649.92 972.21,652.254 971.5,654.5C 970.307,654.97 969.64,655.97 969.5,657.5C 969.52,658.726 969.853,659.726 970.5,660.5C 970.5,660.833 970.5,661.167 970.5,661.5C 968.576,661.711 968.243,662.377 969.5,663.5C 969.5,663.833 969.5,664.167 969.5,664.5C 968.624,664.369 967.957,664.702 967.5,665.5C 964.871,671.085 962.538,676.751 960.5,682.5C 958.674,684.147 957.34,686.147 956.5,688.5C 952.82,692.183 949.486,696.183 946.5,700.5C 945.833,701.833 944.833,702.833 943.5,703.5C 942.5,704.167 941.5,704.833 940.5,705.5C 936.143,708.864 931.809,712.198 927.5,715.5C 925.973,715.427 924.973,716.094 924.5,717.5C 920.915,717.292 918.249,718.625 916.5,721.5C 914.801,721.34 913.134,721.506 911.5,722C 910.244,722.417 909.577,723.25 909.5,724.5C 908.292,725.234 906.959,725.567 905.5,725.5C 904.377,724.243 903.711,724.576 903.5,726.5C 903.167,726.5 902.833,726.5 902.5,726.5C 901.053,725.115 900.053,725.448 899.5,727.5C 870.516,728.441 841.516,728.775 812.5,728.5C 864.943,674.556 917.943,621.056 971.5,568C 972.094,567.536 972.761,567.369 973.5,567.5 Z"/></g>
<g><path style="opacity:0.998" fill="#8dbd4e" d="M 166.5,589.5 C 166.667,627.168 166.5,664.835 166,702.5C 126.938,741.395 88.1048,780.395 49.5,819.5C 49.5,781.5 49.5,743.5 49.5,705.5C 87.4937,668.033 125.16,630.199 162.5,592C 163.984,591.338 165.317,590.504 166.5,589.5 Z"/></g>
<g><path style="opacity:1" fill="#7aa943" d="M 835.5,614.5 C 835.461,615.583 835.127,616.583 834.5,617.5C 761.763,690.281 688.93,762.947 616,835.5C 615.214,838.758 613.714,841.424 611.5,843.5C 613.226,838.743 614.893,834.076 616.5,829.5C 617.497,808.34 617.831,787.007 617.5,765.5C 665.473,717.194 713.473,668.86 761.5,620.5C 780.674,620.83 799.674,620.497 818.5,619.5C 824.348,618.439 830.015,616.773 835.5,614.5 Z"/></g>
<g><path style="opacity:1" fill="#7cab45" d="M 761.5,620.5 C 713.473,668.86 665.473,717.194 617.5,765.5C 617.5,717.167 617.5,668.833 617.5,620.5C 665.5,620.5 713.5,620.5 761.5,620.5 Z"/></g>
<g><path style="opacity:1" fill="#a6c383" d="M 971.5,654.5 C 971.167,656.5 970.833,658.5 970.5,660.5C 969.853,659.726 969.52,658.726 969.5,657.5C 969.64,655.97 970.307,654.97 971.5,654.5 Z"/></g>
<g><path style="opacity:0.008" fill="#ccdeba" d="M 970.5,661.5 C 970.672,662.492 970.338,663.158 969.5,663.5C 968.243,662.377 968.576,661.711 970.5,661.5 Z"/></g>
<g><path style="opacity:0.735" fill="#c2d6ab" d="M 969.5,664.5 C 967.535,671.097 964.535,677.097 960.5,682.5C 962.538,676.751 964.871,671.085 967.5,665.5C 967.957,664.702 968.624,664.369 969.5,664.5 Z"/></g>
<g><path style="opacity:0.008" fill="#dce8d0" d="M 960.5,682.5 C 960.155,685.198 958.822,687.198 956.5,688.5C 957.34,686.147 958.674,684.147 960.5,682.5 Z"/></g>
<g><path style="opacity:0.024" fill="#d6e4c7" d="M 956.5,688.5 C 955.316,691.861 953.483,694.861 951,697.5C 949.871,699.141 948.371,700.141 946.5,700.5C 949.486,696.183 952.82,692.183 956.5,688.5 Z"/></g>
<g><path style="opacity:0.998" fill="#8cbb4e" d="M 167.5,450.5 C 167.5,577.167 167.5,703.833 167.5,830.5C 166.668,813.005 166.168,795.338 166,777.5C 127.721,815.289 89.7208,853.289 52,891.5C 51.9005,889.347 51.0672,887.681 49.5,886.5C 49.5,864.167 49.5,841.833 49.5,819.5C 88.1048,780.395 126.938,741.395 166,702.5C 166.5,664.835 166.667,627.168 166.5,589.5C 166.5,566.5 166.5,543.5 166.5,520.5C 166.169,496.994 166.502,473.661 167.5,450.5 Z"/></g>
<g><path style="opacity:0.047" fill="#f0f5eb" d="M 943.5,703.5 C 943.5,705.5 942.5,706.5 940.5,706.5C 940.5,706.167 940.5,705.833 940.5,705.5C 941.5,704.833 942.5,704.167 943.5,703.5 Z"/></g>
<g><path style="opacity:1" fill="#92b964" d="M 818.5,619.5 C 799.674,620.497 780.674,620.83 761.5,620.5C 713.5,620.5 665.5,620.5 617.5,620.5C 617.5,668.833 617.5,717.167 617.5,765.5C 617.831,787.007 617.497,808.34 616.5,829.5C 616.5,759.5 616.5,689.5 616.5,619.5C 683.833,619.5 751.167,619.5 818.5,619.5 Z"/></g>
<g><path style="opacity:0.282" fill="#c4d8af" d="M 940.5,705.5 C 940.5,705.833 940.5,706.167 940.5,706.5C 936.999,710.662 932.665,713.662 927.5,715.5C 931.809,712.198 936.143,708.864 940.5,705.5 Z"/></g>
<g><path style="opacity:0.188" fill="#e1ead5" d="M 927.5,715.5 C 927.027,716.906 926.027,717.573 924.5,717.5C 924.973,716.094 925.973,715.427 927.5,715.5 Z"/></g>
<g><path style="opacity:0.867" fill="#bed3a5" d="M 924.5,717.5 C 922.151,719.341 919.485,720.674 916.5,721.5C 918.249,718.625 920.915,717.292 924.5,717.5 Z"/></g>
<g><path style="opacity:0.437" fill="#b5ce9a" d="M 916.5,721.5 C 914.491,723.065 912.157,724.065 909.5,724.5C 909.577,723.25 910.244,722.417 911.5,722C 913.134,721.506 914.801,721.34 916.5,721.5 Z"/></g>
<g><path style="opacity:0.11" fill="#c6d9b2" d="M 905.5,725.5 C 905.158,726.338 904.492,726.672 903.5,726.5C 903.711,724.576 904.377,724.243 905.5,725.5 Z"/></g>
<g><path style="opacity:0.039" fill="#d1e1c1" d="M 902.5,726.5 C 901.791,727.404 900.791,727.737 899.5,727.5C 900.053,725.448 901.053,725.115 902.5,726.5 Z"/></g>
<g><path style="opacity:1" fill="#88b74b" d="M 167.5,830.5 C 170.116,844.467 177.783,854.8 190.5,861.5C 158.201,894.299 125.701,926.965 93,959.5C 91.6439,958.62 90.1439,958.286 88.5,958.5C 82.8031,952.802 76.8031,947.468 70.5,942.5C 69.8333,942.5 69.5,942.167 69.5,941.5C 69.0023,938.674 67.6689,936.34 65.5,934.5C 63.7497,933.341 62.7497,931.674 62.5,929.5C 61.1452,924.771 58.8119,920.771 55.5,917.5C 55.5,917.167 55.5,916.833 55.5,916.5C 56.0431,916.44 56.3764,916.107 56.5,915.5C 55.5315,912.231 54.1981,909.231 52.5,906.5C 50.4196,900.016 49.4196,893.349 49.5,886.5C 51.0672,887.681 51.9005,889.347 52,891.5C 89.7208,853.289 127.721,815.289 166,777.5C 166.168,795.338 166.668,813.005 167.5,830.5 Z"/></g>
<g><path style="opacity:1" fill="#75a441" d="M 731.5,889.5 C 731.747,892.939 731.414,896.272 730.5,899.5C 728.837,901.438 728.171,903.772 728.5,906.5C 728.768,908.099 728.434,909.432 727.5,910.5C 726.519,912.396 725.519,914.396 724.5,916.5C 724.624,917.107 724.957,917.44 725.5,917.5C 725.443,918.609 725.11,919.609 724.5,920.5C 723.624,920.369 722.957,920.702 722.5,921.5C 720.037,925.289 718.037,929.289 716.5,933.5C 715.094,933.973 714.427,934.973 714.5,936.5C 712.016,938.8 710.016,941.467 708.5,944.5C 707.833,945.833 706.833,946.833 705.5,947.5C 704.167,947.5 703.5,948.167 703.5,949.5C 702.5,950.833 701.5,952.167 700.5,953.5C 698.067,953.273 696.401,954.273 695.5,956.5C 693.596,956.738 692.262,957.738 691.5,959.5C 688.281,960.069 685.948,961.736 684.5,964.5C 680.662,964.913 677.662,966.58 675.5,969.5C 675.167,969.5 674.833,969.5 674.5,969.5C 674.565,969.062 674.399,968.728 674,968.5C 673.005,969.066 672.172,969.733 671.5,970.5C 669.299,971.566 666.965,972.233 664.5,972.5C 661.918,972.025 659.918,972.692 658.5,974.5C 653.988,975.981 649.322,976.648 644.5,976.5C 617.908,975.509 591.241,975.176 564.5,975.5C 619.465,920.035 674.632,864.701 730,809.5C 730.168,836.336 730.668,863.003 731.5,889.5 Z"/></g>
<g><path style="opacity:1" fill="#8cb854" d="M 190.5,861.5 C 192.5,862.167 194.5,862.833 196.5,863.5C 197.609,864.29 198.942,864.79 200.5,865C 221.831,865.5 243.164,865.667 264.5,865.5C 228.368,902.132 192.035,938.632 155.5,975C 201.832,975.5 248.165,975.667 294.5,975.5C 322.167,975.5 349.833,975.5 377.5,975.5C 410.5,975.5 443.5,975.5 476.5,975.5C 505.833,975.5 535.167,975.5 564.5,975.5C 591.241,975.176 617.908,975.509 644.5,976.5C 475.667,977.666 306.667,977.833 137.5,977C 127.972,976.532 118.972,974.366 110.5,970.5C 104.364,966.93 98.0305,963.597 91.5,960.5C 89.9731,960.573 88.9731,959.906 88.5,958.5C 90.1439,958.286 91.6439,958.62 93,959.5C 125.701,926.965 158.201,894.299 190.5,861.5 Z"/></g>
<g><path style="opacity:1" fill="#dde9cf" d="M 196.5,863.5 C 324.822,864.486 453.155,864.819 581.5,864.5C 550.004,865.498 518.338,865.832 486.5,865.5C 458.833,865.5 431.167,865.5 403.5,865.5C 357.167,865.5 310.833,865.5 264.5,865.5C 243.164,865.667 221.831,865.5 200.5,865C 198.942,864.79 197.609,864.29 196.5,863.5 Z"/></g>
<g><path style="opacity:1" fill="#7aaa44" d="M 587.5,863.5 C 550.446,900.887 513.446,938.221 476.5,975.5C 443.5,975.5 410.5,975.5 377.5,975.5C 412.766,940.006 448.266,904.673 484,869.5C 484.662,868.016 485.496,866.683 486.5,865.5C 518.338,865.832 550.004,865.498 581.5,864.5C 583.565,864.483 585.565,864.15 587.5,863.5 Z"/></g>
<g><path style="opacity:1" fill="#81b047" d="M 264.5,865.5 C 310.833,865.5 357.167,865.5 403.5,865.5C 367.673,901.133 331.84,936.8 296,972.5C 295.487,973.527 294.987,974.527 294.5,975.5C 248.165,975.667 201.832,975.5 155.5,975C 192.035,938.632 228.368,902.132 264.5,865.5 Z"/></g>
<g><path style="opacity:1" fill="#7dad45" d="M 403.5,865.5 C 431.167,865.5 458.833,865.5 486.5,865.5C 485.496,866.683 484.662,868.016 484,869.5C 448.266,904.673 412.766,940.006 377.5,975.5C 349.833,975.5 322.167,975.5 294.5,975.5C 294.987,974.527 295.487,973.527 296,972.5C 331.84,936.8 367.673,901.133 403.5,865.5 Z"/></g>
<g><path style="opacity:0.918" fill="#b1ca92" d="M 730.5,899.5 C 730.279,902.067 729.612,904.401 728.5,906.5C 728.171,903.772 728.837,901.438 730.5,899.5 Z"/></g>
<g><path style="opacity:1" fill="#bdd79b" d="M 52.5,906.5 C 54.1981,909.231 55.5315,912.231 56.5,915.5C 56.3764,916.107 56.0431,916.44 55.5,916.5C 53.5902,913.548 52.5902,910.214 52.5,906.5 Z"/></g>
<g><path style="opacity:0.039" fill="#c4d7ae" d="M 727.5,910.5 C 727.59,913.152 726.924,915.485 725.5,917.5C 724.957,917.44 724.624,917.107 724.5,916.5C 725.519,914.396 726.519,912.396 727.5,910.5 Z"/></g>
<g><path style="opacity:0.741" fill="#d0e2b8" d="M 55.5,917.5 C 58.8119,920.771 61.1452,924.771 62.5,929.5C 59.1881,926.229 56.8548,922.229 55.5,917.5 Z"/></g>
<g><path style="opacity:0.514" fill="#bed3a6" d="M 724.5,920.5 C 723.083,925.679 720.417,930.012 716.5,933.5C 718.037,929.289 720.037,925.289 722.5,921.5C 722.957,920.702 723.624,920.369 724.5,920.5 Z"/></g>
<g><path style="opacity:0.431" fill="#c3d6ac" d="M 716.5,933.5 C 716.573,935.027 715.906,936.027 714.5,936.5C 714.427,934.973 715.094,933.973 716.5,933.5 Z"/></g>
<g><path style="opacity:0.439" fill="#d8e7c5" d="M 65.5,934.5 C 67.6689,936.34 69.0023,938.674 69.5,941.5C 67.058,939.879 65.7247,937.546 65.5,934.5 Z"/></g>
<g><path style="opacity:0.275" fill="#d3e1c3" d="M 714.5,936.5 C 713.944,940.289 711.944,942.955 708.5,944.5C 710.016,941.467 712.016,938.8 714.5,936.5 Z"/></g>
<g><path style="opacity:0.392" fill="#cce0b2" d="M 70.5,942.5 C 76.8031,947.468 82.8031,952.802 88.5,958.5C 81.6538,954.332 75.6538,948.999 70.5,942.5 Z"/></g>
<g><path style="opacity:0.529" fill="#bbd1a2" d="M 705.5,947.5 C 705.5,948.833 704.833,949.5 703.5,949.5C 703.5,948.167 704.167,947.5 705.5,947.5 Z"/></g>
<g><path style="opacity:0.275" fill="#d5e3c6" d="M 700.5,953.5 C 699.599,955.727 697.933,956.727 695.5,956.5C 696.401,954.273 698.067,953.273 700.5,953.5 Z"/></g>
<g><path style="opacity:0.384" fill="#cbdcb8" d="M 695.5,956.5 C 694.738,958.262 693.404,959.262 691.5,959.5C 692.262,957.738 693.596,956.738 695.5,956.5 Z"/></g>
<g><path style="opacity:0.631" fill="#b8cf9d" d="M 691.5,959.5 C 689.45,961.547 687.117,963.214 684.5,964.5C 685.948,961.736 688.281,960.069 691.5,959.5 Z"/></g>
<g><path style="opacity:0.212" fill="#c2d9a4" d="M 91.5,960.5 C 98.0305,963.597 104.364,966.93 110.5,970.5C 104.874,969.192 99.5409,967.025 94.5,964C 93.2899,962.961 92.2899,961.794 91.5,960.5 Z"/></g>
<g><path style="opacity:0.433" fill="#dce8d0" d="M 684.5,964.5 C 681.992,966.924 678.992,968.59 675.5,969.5C 677.662,966.58 680.662,964.913 684.5,964.5 Z"/></g>
<g><path style="opacity:0.008" fill="#d7e4c7" d="M 674.5,969.5 C 673.791,970.404 672.791,970.737 671.5,970.5C 672.172,969.733 673.005,969.066 674,968.5C 674.399,968.728 674.565,969.062 674.5,969.5 Z"/></g>
<g><path style="opacity:0.733" fill="#aec990" d="M 664.5,972.5 C 662.786,973.738 660.786,974.405 658.5,974.5C 659.918,972.692 661.918,972.025 664.5,972.5 Z"/></g>
</svg>
